# xmcd
#
# Track frame offsets:
#	150
#	9908
#	19949
#	31114
#	39424
#	49317
#	58878
#	68609
#	78239
#	88967
#	100532
#	114075
#	121859
#	131961
#	146324
#	158033
#	168513
#	179735
#	193682
#	205886
#	218060
#
# Disc length: 3051 seconds
#
# Revision: 1
# Processed by: cddbd v1.5.2PL0 Copyright (c) Steve Scherf et al.
# Submitted via: audiograbber 1.81.03
#
DISCID=1b0be915
DTITLE=The Champion Records Story - Volume 2, Rockin R&B
DYEAR=2007
DGENRE=Blues
TTITLE0=Jimmy Beck and His Orchestra - Pipe Dreams
TTITLE1=Jimmy Beck and His Orchestra - Fiesta
TTITLE2=Jimmy Beck and His Orchestra - Nightmare
TTITLE3=Little Ike - She Can Rock
TTITLE4=Larry Birdsong - Scooter Poofin'
TTITLE5=Earl Gaines - Now Do You Hear
TTITLE6=Earl Gaines - If I Could Only Hold Back My Tears
TTITLE7=Earl Gaines - Three Times Seven
TTITLE8=Johnny B ridgeforth - Moon Flight
TTITLE9=Chuck Harrod and The Anteaters - They Wanna Fight
TTITLE10=Chuck Harrod and The Anteaters - Sandy
TTITLE11=Chuck Harrod and The Anteaters - Crawdad Hole
TTITLE12=Al "Murfreesboro" Garner - Oh Mz Love
TTITLE13=Cliff Butler - Rent's Too High
TTITLE14=Don Q's Band With Clenest Gant - Hallelujah
TTITLE15=Don Q's Band With Clenest Gant - Jump Jump Hi Ho
TTITLE16=Joyce Paul - Goofin' Off
TTITLE17=Joyce Paul - Tell Me The Truth
TTITLE18=Sandra Meade - Who Spins The Wheel
TTITLE19=Sandra Meade - Fever
TTITLE20=Baker Knight - Bring My Cadillac Back
EXTD=
EXTT0=
EXTT1=
EXTT2=
EXTT3=
EXTT4=
EXTT5=
EXTT6=
EXTT7=
EXTT8=
EXTT9=
EXTT10=
EXTT11=
EXTT12=
EXTT13=
EXTT14=
EXTT15=
EXTT16=
EXTT17=
EXTT18=
EXTT19=
EXTT20=
PLAYORDER=
